<svg width="1893" height="1115" viewBox="0 0 1893 1115" fill="none" xmlns="http://www.w3.org/2000/svg">
<path fill-rule="evenodd" clip-rule="evenodd" d="M426.356 1L202.811 130.064L426.356 259.128L426.356 1ZM425.356 257.396L425.356 2.73205L204.811 130.064L425.356 257.396Z" fill="#F2F2F2"/>
<path fill-rule="evenodd" clip-rule="evenodd" d="M299.815 563.969C302.206 562.588 303.026 559.53 301.645 557.138C300.264 554.747 297.206 553.928 294.815 555.308C292.423 556.689 291.604 559.747 292.985 562.138C292.999 562.163 293.013 562.187 293.027 562.21L-174.628 832.211L-174.65 832.172L-174.669 832.138C-176.05 829.747 -179.108 828.928 -181.499 830.308C-183.891 831.689 -184.71 834.747 -183.329 837.138C-181.949 839.53 -178.891 840.349 -176.499 838.969C-175.823 838.578 -175.273 838.054 -174.862 837.449L292.59 1107.33C291.963 1108.74 291.996 1110.43 292.828 1111.87C294.208 1114.26 297.266 1115.08 299.658 1113.7C302.049 1112.32 302.869 1109.26 301.488 1106.87C300.709 1105.52 299.396 1104.67 297.97 1104.43L297.97 564.597C298.602 564.513 299.228 564.307 299.815 563.969ZM293.628 563.018C294.507 563.978 295.713 564.539 296.97 564.627L296.97 1104.37C296.182 1104.4 295.389 1104.61 294.658 1105.04C294.017 1105.41 293.488 1105.9 293.085 1106.46L-174.387 836.569C-173.939 835.498 -173.867 834.281 -174.229 833.136L293.628 563.018Z" fill="#F2F2F2"/>
<path fill-rule="evenodd" clip-rule="evenodd" d="M1668.33 416L1891.87 545.064L1668.33 674.128V416ZM1889.87 545.064L1669.33 672.396V417.732L1889.87 545.064Z" fill="#F2F2F2"/>
<path fill-rule="evenodd" clip-rule="evenodd" d="M1308.94 533.256L841.289 263.255C841.303 263.231 841.317 263.207 841.331 263.183C842.712 260.792 841.892 257.734 839.501 256.353C837.109 254.972 834.051 255.792 832.671 258.183C831.29 260.574 832.109 263.632 834.501 265.013C835.177 265.403 835.906 265.618 836.635 265.671L836.635 805.438C835.099 805.601 833.659 806.471 832.828 807.911C831.447 810.303 832.266 813.36 834.658 814.741C837.049 816.122 840.107 815.303 841.488 812.911C842.267 811.562 842.346 810 841.837 808.648L1309.35 538.729C1309.74 539.235 1310.23 539.675 1310.81 540.013C1313.21 541.394 1316.26 540.574 1317.64 538.183C1319.03 535.792 1318.21 532.734 1315.81 531.353C1313.42 529.972 1310.37 530.792 1308.98 533.183C1308.97 533.207 1308.96 533.231 1308.94 533.256ZM837.635 265.643L837.635 805.433C838.327 805.499 839.017 805.711 839.658 806.081C840.389 806.503 840.973 807.081 841.392 807.75L1308.82 537.879C1308.27 536.746 1308.15 535.421 1308.54 534.18L840.687 264.063C839.877 264.948 838.787 265.495 837.635 265.643Z" fill="#F2F2F2"/>
<path fill-rule="evenodd" clip-rule="evenodd" d="M426.356 1L202.811 130.064L426.356 259.128L426.356 1ZM425.356 257.396L425.356 2.73205L204.811 130.064L425.356 257.396Z" stroke="#F2F2F2" stroke-width="0.5"/>
<path fill-rule="evenodd" clip-rule="evenodd" d="M299.815 563.969C302.206 562.588 303.026 559.53 301.645 557.138C300.264 554.747 297.206 553.928 294.815 555.308C292.423 556.689 291.604 559.747 292.985 562.138C292.999 562.163 293.013 562.187 293.027 562.21L-174.628 832.211L-174.65 832.172L-174.669 832.138C-176.05 829.747 -179.108 828.928 -181.499 830.308C-183.891 831.689 -184.71 834.747 -183.329 837.138C-181.949 839.53 -178.891 840.349 -176.499 838.969C-175.823 838.578 -175.273 838.054 -174.862 837.449L292.59 1107.33C291.963 1108.74 291.996 1110.43 292.828 1111.87C294.208 1114.26 297.266 1115.08 299.658 1113.7C302.049 1112.32 302.869 1109.26 301.488 1106.87C300.709 1105.52 299.396 1104.67 297.97 1104.43L297.97 564.597C298.602 564.513 299.228 564.307 299.815 563.969ZM293.628 563.018C294.507 563.978 295.713 564.539 296.97 564.627L296.97 1104.37C296.182 1104.4 295.389 1104.61 294.658 1105.04C294.017 1105.41 293.488 1105.9 293.085 1106.46L-174.387 836.569C-173.939 835.498 -173.867 834.281 -174.229 833.136L293.628 563.018Z" stroke="#F2F2F2" stroke-width="0.5"/>
<path fill-rule="evenodd" clip-rule="evenodd" d="M1668.33 416L1891.87 545.064L1668.33 674.128V416ZM1889.87 545.064L1669.33 672.396V417.732L1889.87 545.064Z" stroke="#F2F2F2" stroke-width="0.5"/>
<path fill-rule="evenodd" clip-rule="evenodd" d="M1308.94 533.256L841.289 263.255C841.303 263.231 841.317 263.207 841.331 263.183C842.712 260.792 841.892 257.734 839.501 256.353C837.109 254.972 834.051 255.792 832.671 258.183C831.29 260.574 832.109 263.632 834.501 265.013C835.177 265.403 835.906 265.618 836.635 265.671L836.635 805.438C835.099 805.601 833.659 806.471 832.828 807.911C831.447 810.303 832.266 813.36 834.658 814.741C837.049 816.122 840.107 815.303 841.488 812.911C842.267 811.562 842.346 810 841.837 808.648L1309.35 538.729C1309.74 539.235 1310.23 539.675 1310.81 540.013C1313.21 541.394 1316.26 540.574 1317.64 538.183C1319.03 535.792 1318.21 532.734 1315.81 531.353C1313.42 529.972 1310.37 530.792 1308.98 533.183C1308.97 533.207 1308.96 533.231 1308.94 533.256ZM837.635 265.643L837.635 805.433C838.327 805.499 839.017 805.711 839.658 806.081C840.389 806.503 840.973 807.081 841.392 807.75L1308.82 537.879C1308.27 536.746 1308.15 535.421 1308.54 534.18L840.687 264.063C839.877 264.948 838.787 265.495 837.635 265.643Z" stroke="#F2F2F2" stroke-width="0.5"/>
</svg>
