<svg width="31" height="37" viewBox="0 0 31 37" fill="none" xmlns="http://www.w3.org/2000/svg">
<path d="M4.02346 12.6172L2.50957 11.1181C1.68711 10.3041 1.68711 8.9791 2.50957 8.16456C3.33203 7.3503 4.67038 7.3503 5.49284 8.16456L7.1092 9.7648C8.79532 8.60215 10.7174 7.79741 12.7313 7.41122V5.3345H11.3248C10.9364 5.3345 10.6215 5.02283 10.6215 4.63827V2.82807C10.6215 1.6763 11.5679 0.73938 12.7313 0.73938H18.3572C19.5205 0.73938 20.4669 1.6763 20.4669 2.82807V4.63827C20.4669 5.02283 20.1521 5.3345 19.7637 5.3345H18.3572V7.41122C20.3708 7.79714 22.2931 8.60215 23.9793 9.7648L25.5956 8.16456C26.4178 7.3503 27.7561 7.3503 28.5789 8.16456C29.4013 8.97883 29.4013 10.3038 28.5789 11.1181L27.065 12.6172C29.1634 15.2049 30.3123 18.4282 30.3123 21.7655C30.3123 29.8274 23.6872 36.3864 15.5442 36.3864C7.40121 36.3864 0.776194 29.8274 0.776194 21.7655C0.776194 18.4282 1.925 15.2049 4.02346 12.6172ZM4.49842 9.14908C4.22399 8.87766 3.77815 8.87793 3.50399 9.14908C3.23011 9.4205 3.23011 9.86217 3.50399 10.1336L4.95717 11.572C5.28462 11.2391 5.628 10.9217 5.98511 10.6212L4.49842 9.14908ZM19.0604 2.82807C19.0604 2.44406 18.7451 2.13184 18.3572 2.13184H12.7313C12.3434 2.13184 12.028 2.44406 12.028 2.82807V3.94204H19.0604V2.82807ZM14.1377 5.3345V7.21051C15.0698 7.12403 16.0184 7.12403 16.9507 7.21051V5.3345H14.1377ZM27.5845 9.14908C27.3103 8.87793 26.8642 8.87766 26.59 9.14908L25.1033 10.6212C25.4605 10.9217 25.8038 11.2391 26.1313 11.572L27.5845 10.1336C27.8583 9.86217 27.8583 9.4205 27.5845 9.14908ZM15.5442 34.9939C22.9118 34.9939 28.9058 29.0596 28.9058 21.7655C28.9058 18.5479 27.7259 15.4478 25.5838 13.0357C24.9937 12.3713 24.3353 11.7643 23.6268 11.2307C21.8514 9.89317 19.7499 9.01282 17.5496 8.68456C16.8911 8.58692 16.2164 8.53716 15.5442 8.53716C14.872 8.53716 14.1974 8.58692 13.5392 8.68456C11.3385 9.01282 9.23705 9.89317 7.46136 11.2307C6.75318 11.7643 6.09472 12.3713 5.50466 13.0357C3.36252 15.4478 2.18267 18.5479 2.18267 21.7655C2.18267 29.0596 8.17669 34.9939 15.5442 34.9939Z" fill="#00B2FF"/>
<path d="M15.5443 23.8542C14.381 23.8542 13.4346 22.9173 13.4346 21.7655C13.4346 20.858 14.0225 20.084 14.8411 19.7965V14.8032C14.8411 14.4187 15.1559 14.107 15.5443 14.107C15.9328 14.107 16.2476 14.4187 16.2476 14.8032V19.7965C17.0662 20.084 17.6541 20.858 17.6541 21.7655C17.6541 22.9173 16.7077 23.8542 15.5443 23.8542ZM15.5443 21.0693C15.1565 21.0693 14.8411 21.3815 14.8411 21.7655C14.8411 22.1495 15.1565 22.4618 15.5443 22.4618C15.9322 22.4618 16.2476 22.1495 16.2476 21.7655C16.2476 21.3815 15.9322 21.0693 15.5443 21.0693Z" fill="#00B2FF"/>
<path d="M8.053 14.4203C8.06399 14.4075 8.07498 14.3947 8.08734 14.3827C8.10052 14.3694 8.11453 14.3574 8.12854 14.3455C9.368 13.1314 10.8992 12.2331 12.5609 11.7474C12.9336 11.6386 13.3245 11.8491 13.4344 12.2179C13.5443 12.5867 13.3317 12.974 12.9592 13.0827C11.728 13.4428 10.5794 14.0651 9.6004 14.8959L10.0748 15.3656C10.3492 15.6376 10.3492 16.0784 10.0748 16.3504C9.93746 16.4864 9.75753 16.5544 9.57733 16.5544C9.3974 16.5544 9.21746 16.4864 9.08011 16.3504L8.6046 15.8796C7.33218 17.3444 6.57647 19.1476 6.42923 21.0693H7.10555C7.49398 21.0693 7.80879 21.3812 7.80879 21.7655C7.80879 22.1501 7.49398 22.4617 7.10555 22.4617H6.42923C6.57647 24.3837 7.33218 26.1866 8.6046 27.6514L9.08011 27.1806C9.35482 26.9089 9.80011 26.9089 10.0748 27.1806C10.3495 27.4526 10.3495 27.8934 10.0748 28.1654L9.5993 28.6361C11.0789 29.8959 12.9001 30.6441 14.8412 30.7901V30.1203C14.8412 29.7357 15.156 29.424 15.5444 29.424C15.9329 29.424 16.2477 29.7357 16.2477 30.1203V30.7898C18.1887 30.6441 20.01 29.8959 21.4895 28.6361L21.014 28.1654C20.7393 27.8934 20.7393 27.4526 21.014 27.1806C21.2887 26.9089 21.734 26.9089 22.0087 27.1806L22.4842 27.6514C23.7567 26.1866 24.5124 24.3834 24.6596 22.4617H23.9833C23.5949 22.4617 23.2801 22.1501 23.2801 21.7655C23.2801 21.3809 23.5949 21.0693 23.9833 21.0693H24.6596C24.5124 19.1476 23.7567 17.3444 22.4842 15.8796L22.0087 16.3504C21.8714 16.4864 21.6915 16.5544 21.5115 16.5544C21.3313 16.5544 21.1514 16.4864 21.014 16.3504C20.7396 16.0784 20.7396 15.6376 21.014 15.3656L21.4884 14.8959C20.5094 14.0648 19.3609 13.4428 18.1297 13.0827C17.7572 12.974 17.5445 12.5867 17.6544 12.2179C17.7643 11.8491 18.1549 11.6389 18.528 11.7474C20.1894 12.2329 21.72 13.1309 22.9592 14.3444C22.9738 14.3566 22.988 14.3691 23.0015 14.3825C23.0136 14.3944 23.0243 14.4069 23.0353 14.4195C25.0074 16.3901 26.093 18.9966 26.093 21.7655C26.093 24.5341 25.0074 27.1403 23.0358 29.1107C23.0249 29.1235 23.0139 29.1363 23.0015 29.1483C22.9894 29.1605 22.9768 29.1711 22.9642 29.182C20.9737 31.1341 18.3412 32.2089 15.5444 32.2089C12.7479 32.2089 10.1155 31.1344 8.12525 29.1825C8.11234 29.1714 8.09942 29.1605 8.08734 29.1483C8.07525 29.1366 8.06454 29.1238 8.05355 29.1115C6.08146 27.1409 4.99583 24.5344 4.99583 21.7655C4.99583 18.9969 6.08146 16.3907 8.053 14.4203Z" fill="#00B2FF"/>
<path d="M15.5443 12.7145C15.1562 12.7145 14.8411 12.4026 14.8411 12.0183C14.8411 11.634 15.1562 11.3221 15.5443 11.3221C15.9325 11.3221 16.2476 11.634 16.2476 12.0183C16.2476 12.4026 15.9325 12.7145 15.5443 12.7145Z" fill="#00B2FF"/>
</svg>
